<svg width="1730" height="915" viewBox="0 0 1730 915" fill="none" xmlns="http://www.w3.org/2000/svg">
<path d="M1238.4 139.307C1595.02 109.178 1640 202.84 1730 262.5V915H0V19.2353C24 186.5 68 313 430 294C646 277 1071.45 159.959 1238.4 139.307Z" fill="#260933"/>
<g clip-path="url(#clip0_1699_4927)">
<path d="M1731.46 144.248C1722.73 138.012 1713.83 132.068 1704.67 126.575C1695.47 121.162 1686.11 116.027 1676.53 111.45C1657.39 102.189 1637.55 94.533 1617.3 88.4298C1576.79 76.1835 1534.87 69.5893 1492.82 67.0286C1450.74 64.3617 1408.51 65.5691 1366.47 69.3239C1324.42 72.9726 1282.54 78.6646 1240.93 86.1212L1225.33 88.9207C1220.14 89.8494 1214.95 90.9639 1209.77 91.9856C1199.41 94.0952 1189.02 96.0456 1178.7 98.394L1163.2 101.764C1158.03 102.865 1152.86 103.98 1147.7 105.214C1137.39 107.628 1127.06 109.95 1116.77 112.418C1075.57 122.276 1034.59 133.183 993.616 144.314C952.657 155.473 911.673 166.684 870.599 177.696C829.512 188.682 788.285 199.337 746.789 208.929C705.267 218.389 663.464 226.801 621.379 233.581C579.295 240.334 536.916 245.549 494.319 248.189L478.337 249.012L470.34 249.423L466.348 249.622L462.343 249.715L430.328 250.272L398.301 249.715C395.627 249.715 392.965 249.503 390.304 249.37L382.307 248.932L366.312 248.043C345.007 246.424 323.716 244.408 302.577 241.13L294.644 240.003L290.677 239.432L286.724 238.729C281.452 237.76 276.167 236.898 270.921 235.85L255.182 232.599L239.533 228.951C197.922 218.668 157.181 204.657 118.129 186.613C79.1151 168.542 41.8032 146.504 7.21667 120.551C-10.0318 107.522 -26.6021 93.5246 -42.2767 78.5186C-57.9001 63.4727 -72.679 47.4849 -86.2679 30.4754C-99.8696 13.4792 -112.384 -4.41931 -123.567 -23.1669C-134.699 -41.9411 -144.59 -61.4847 -152.895 -81.7051C-143.707 -61.896 -133.228 -42.7637 -121.443 -24.5733C-109.722 -6.34316 -96.7603 10.998 -82.7619 27.3574C-68.7507 43.7035 -53.7927 59.1474 -37.9518 73.5564C-22.098 87.9388 -5.38697 101.286 11.951 113.639C46.6015 138.41 83.7471 159.334 122.492 176.25C161.25 193.14 201.428 206.448 242.438 215.842L257.857 219.185L273.339 222.131C278.509 223.086 283.704 223.842 288.886 224.718L292.776 225.342L296.691 225.833L304.509 226.828C325.328 229.773 346.287 231.604 367.259 232.984L383.01 233.7L390.88 234.059C393.503 234.165 396.126 234.351 398.762 234.324L430.303 234.576L461.844 233.714L465.785 233.594L469.726 233.355L477.608 232.878L493.372 231.923C577.414 226.058 660.79 211.132 743.245 192.119C825.789 173.318 907.527 150.205 989.752 128.565C1071.99 107.058 1154.75 86.4263 1238.88 72.9196C1280.92 66.1396 1323.23 60.859 1365.74 58.139C1408.21 55.2997 1450.97 54.9548 1493.45 58.6698C1514.69 60.5937 1535.85 63.4329 1556.79 67.5858C1562.03 68.5544 1567.24 69.7751 1572.45 70.8763C1577.64 72.1368 1582.85 73.3043 1588 74.7107C1598.34 77.3643 1608.57 80.4955 1618.69 83.9186C1638.94 90.7782 1658.7 99.1635 1677.66 109.154C1687.14 114.143 1696.34 119.676 1705.37 125.461C1714.37 131.312 1723.05 137.641 1731.5 144.275L1731.46 144.248Z" fill="#C00E3E"/>
<path d="M2.49922 33.4947C2.49922 33.4947 -49.678 269.085 402.796 270.535C405.511 270.543 408.213 270.512 410.926 270.408C445.774 269.071 713.531 255.834 1252 150.414C1252 150.414 1625.5 71.9925 1730 253.431V413.482C1730 413.482 1442 213.624 1130.5 278.5C1130.5 278.5 8.80753 473.368 -21.2808 201.119C-23.1586 184.128 -36.2393 125.933 2.51706 33.4824L2.49922 33.4947Z" fill="black"/>
<path d="M2.49922 33.4947C2.49922 33.4947 -49.678 269.085 402.796 270.535C405.511 270.543 408.213 270.512 410.926 270.408C445.774 269.071 713.531 255.834 1252 150.414C1252 150.414 1625.5 71.9925 1730 253.431V413.482C1730 413.482 1442 213.624 1130.5 278.5C1130.5 278.5 8.80753 473.368 -21.2808 201.119C-23.1586 184.128 -36.2393 125.933 2.51706 33.4824L2.49922 33.4947Z" fill="url(#paint0_linear_1699_4927)"/>
<path opacity="0.5" d="M1728.5 326.5C1691.67 234.666 1559 72.8996 1323 160.5C1052.5 271 560.4 392.5 378 354.5C292 336.333 20.9 344.1 2.5 160.5" stroke="url(#paint1_linear_1699_4927)"/>
<path d="M1729.5 238.157C1618 43.437 1452 46.5776 711.47 219.89C468.08 276.853 310.859 319.468 196.976 318.251C88.2056 317.089 22.6453 272.109 1.00062 241.766C-3.65442 281.182 -4.01614 295.802 10.4991 328.788C113.391 562.606 465.425 435.599 845.499 349C1148 268 1381.36 252.515 1539.5 252.515C1658.86 252.515 1715.75 299.212 1733 327.442C1733 327.442 1738 253.009 1729.5 238.157Z" fill="url(#paint2_linear_1699_4927)"/>
<path opacity="0.5" d="M-0.0550537 269.06C-0.0550537 269.06 74.3982 409.506 219.921 431.504C480.578 470.905 1289.34 150.612 1289.34 150.612C1464 88.5002 1645.2 130.323 1731.5 264" stroke="url(#paint3_linear_1699_4927)"/>
</g>
<defs>
<linearGradient id="paint0_linear_1699_4927" x1="1979.57" y1="211.52" x2="-235.925" y2="211.52" gradientUnits="userSpaceOnUse">
<stop offset="0.0392068" stop-color="#31234C"/>
<stop offset="0.200787" stop-color="#8F1876"/>
<stop offset="0.41" stop-color="#901578"/>
<stop offset="0.56" stop-color="#E0482D"/>
<stop offset="0.72454" stop-color="#E95928"/>
<stop offset="0.891893" stop-color="#EC5E26"/>
<stop offset="1" stop-color="#F26823"/>
</linearGradient>
<linearGradient id="paint1_linear_1699_4927" x1="1726.45" y1="563.691" x2="1.05696" y2="343.195" gradientUnits="userSpaceOnUse">
<stop stop-color="white"/>
<stop offset="1" stop-color="white" stop-opacity="0.24"/>
</linearGradient>
<linearGradient id="paint2_linear_1699_4927" x1="1347.44" y1="398.993" x2="1067.04" y2="-193.17" gradientUnits="userSpaceOnUse">
<stop stop-color="#D7207D"/>
<stop offset="0.09" stop-color="#CB2238"/>
<stop offset="0.21" stop-color="#D63632"/>
<stop offset="0.34" stop-color="#FE8827"/>
<stop offset="0.5" stop-color="#FE8E28"/>
<stop offset="0.57" stop-color="#FF9900"/>
<stop offset="0.63" stop-color="#FE8E28"/>
<stop offset="0.75" stop-color="#FE8627"/>
<stop offset="0.92" stop-color="#FE8827"/>
<stop offset="1" stop-color="#FB791F"/>
</linearGradient>
<linearGradient id="paint3_linear_1699_4927" x1="1.99995" y1="-18.7267" x2="1732" y2="190.273" gradientUnits="userSpaceOnUse">
<stop stop-color="white"/>
<stop offset="1" stop-color="white" stop-opacity="0.24"/>
</linearGradient>
<clipPath id="clip0_1699_4927">
<rect width="1728" height="589" fill="white" transform="translate(2)"/>
</clipPath>
</defs>
</svg>
