<svg width="88" height="88" viewBox="0 0 88 88" fill="none" xmlns="http://www.w3.org/2000/svg">
<g id="fi_9484251">
<path id="Vector" d="M68.0617 11.1719C66.8929 10.7938 65.6554 10.5532 64.3836 10.4157C48.1586 8.76568 43.9992 24.2344 43.9992 24.2344C43.9992 24.2344 39.8398 8.76568 23.6492 10.4157C8.59296 11.9282 0.68671 30.9032 10.5523 46.8532C13.3711 51.4251 17.7711 56.3407 22.4805 60.9126C31.9336 70.0907 42.5898 77.7219 43.9992 77.7219C46.1304 77.7219 68.9211 60.6376 77.4461 46.8876C86.4867 32.2782 80.6429 15.1251 68.0617 11.1719Z" fill="#E5332A"/>
<path id="Vector_2" d="M77.4461 46.8531C86.4867 32.2781 80.643 15.125 68.0617 11.1719C68.0617 11.1719 80.6086 23.2719 73.3898 35.7156C66.1711 48.1594 42.0398 63.6281 38.6367 64.1781C35.818 64.625 28.668 63.9719 22.4805 60.9469C31.9336 70.125 42.5898 77.7562 43.9992 77.7562C46.1305 77.7219 68.9211 60.6375 77.4461 46.8531Z" fill="#BA261E"/>
<path id="Vector_3" opacity="0.5" d="M20.7034 25.3066C23.7525 21.695 24.7427 17.5165 22.9151 15.9736C21.0876 14.4307 17.1343 16.1077 14.0852 19.7193C11.0362 23.3309 10.046 27.5094 11.8735 29.0523C13.7011 30.5952 17.6543 28.9182 20.7034 25.3066Z" fill="white"/>
</g>
</svg>
