<svg width="1328" height="514" viewBox="0 0 1328 514" fill="none" xmlns="http://www.w3.org/2000/svg">
<path d="M0 35.1699C1.22803 35.1699 2.42188 35.3406 3.54736 35.6475C9.07373 37.1826 13.1333 42.2654 13.1333 48.3032C13.1333 50.7935 12.4507 53.1472 11.2227 55.1257C8.9375 58.9124 4.77539 61.4365 0 61.4365V81.3923C7.26562 81.3923 13.1333 87.2939 13.1333 94.5259C13.1333 97.05 12.4507 99.3696 11.2227 101.348C8.9375 105.135 4.77539 107.659 0 107.659V127.615C7.26562 127.615 13.1333 133.516 13.1333 140.748C13.1333 143.239 12.4507 145.592 11.2227 147.571C8.9375 151.357 4.77539 153.882 0 153.882V173.871C7.26562 173.871 13.1333 179.739 13.1333 187.005C13.1333 189.495 12.4165 191.849 11.2227 193.827C8.90332 197.614 4.74121 200.138 0 200.138V220.094C7.26562 220.094 13.1333 225.961 13.1333 233.227C13.1333 235.718 12.4165 238.071 11.2227 240.05C8.90332 243.836 4.74121 246.361 0 246.361V266.316C7.26562 266.316 13.1333 272.184 13.1333 279.45C13.1333 281.94 12.4165 284.294 11.2227 286.272C8.90332 290.059 4.74121 292.583 0 292.583V312.539C7.26562 312.539 13.1333 318.406 13.1333 325.672C13.1333 328.197 12.4507 330.516 11.2227 332.495C8.9375 336.281 4.77539 338.805 0 338.805V358.761C7.26562 358.761 13.1333 364.663 13.1333 371.895C13.1333 374.385 12.4507 376.739 11.2227 378.717C8.9375 382.504 4.77539 385.028 0 385.028V404.984C7.26562 404.984 13.1333 410.885 13.1333 418.117C13.1333 420.641 12.4507 422.961 11.2227 424.939C8.9375 428.726 4.77539 431.25 0 431.25V451.24C7.26562 451.24 13.1333 457.108 13.1333 464.374C13.1333 466.864 12.4165 469.218 11.2227 471.196C8.90332 474.983 4.74121 477.507 0 477.507V490.436C0.527344 490.436 1.04785 490.457 1.56104 490.496C2.17627 490.543 2.78174 490.615 3.37695 490.708C14.0884 492.312 22.3096 501.59 22.3096 512.745H285.35V513.218H332.35V512.745H1305.69C1305.69 500.43 1315.69 490.436 1328 490.436V22.3096C1315.69 22.3096 1305.69 12.3147 1305.69 0H326.559C326.517 0.0727539 326.475 0.145264 326.433 0.217529H288.683C288.641 0.145264 288.599 0.0727539 288.558 0H22.3096C22.3096 12.3147 12.3145 22.3096 0 22.3096V35.1699Z" fill="#FF9900"/>
</svg>
